<svg width="160" height="160" viewBox="0 0 160 160" fill="none" xmlns="http://www.w3.org/2000/svg">
<rect width="160" height="160" fill="white"/>
<path d="M132.883 140V127.265L122.488 108.59H127.708L132.568 117.23L135.358 123.125L138.193 117.185L143.053 108.59H148.228L137.653 127.265V140H132.883Z" fill="#171717"/>
<path d="M97.135 140V108.59H101.905V121.685H115.72V108.59H120.49V140H115.72V125.735H101.905V140H97.135Z" fill="#171717"/>
<path d="M71.2424 140V108.59H83.3024C90.0974 108.59 94.5524 112.46 94.5524 118.445C94.5524 124.52 89.9174 128.525 82.8974 128.525H76.0124V140H71.2424ZM83.3024 112.64H76.0124V124.475H82.8524C86.9024 124.475 89.5574 122.045 89.5574 118.445C89.5574 114.935 87.0824 112.64 83.3024 112.64Z" fill="#171717"/>
<path d="M54.5747 140.54C46.8797 140.54 42.1997 135.68 42.1997 127.58C42.1997 119.525 46.8797 114.71 54.7547 114.71C62.7197 114.71 66.7247 119.435 66.2297 127.085H46.7447C46.7447 127.31 46.7447 127.535 46.7447 127.76C46.7447 133.115 49.5797 136.76 54.5747 136.76C58.4897 136.76 61.2797 134.78 61.8647 131.585H66.4097C65.5997 137.165 61.1447 140.54 54.5747 140.54ZM54.7547 118.445C50.9297 118.445 48.3647 120.29 47.3297 123.665L61.5947 123.71C61.3697 120.515 58.5797 118.445 54.7547 118.445Z" fill="#171717"/>
<path d="M14.8672 140V108.59H24.5422C33.6772 108.59 39.3922 114.71 39.3922 124.205C39.3922 133.79 33.6772 140 24.5422 140H14.8672ZM19.6372 135.95H24.5422C30.6622 135.95 34.3972 131.315 34.3972 124.205C34.3972 117.14 30.6622 112.64 24.5422 112.64H19.6372V135.95Z" fill="#171717"/>
<rect x="147" y="46" width="36" height="3.6" transform="rotate(90 147 46)" fill="#171717"/>
<rect x="136.2" y="46" width="36" height="3.6" transform="rotate(90 136.2 46)" fill="#171717"/>
<rect x="125.4" y="46" width="36" height="3.6" transform="rotate(90 125.4 46)" fill="#171717"/>
<path fill-rule="evenodd" clip-rule="evenodd" d="M90.8999 53.5C90.8999 33.6178 107.018 17.5 126.9 17.5V21.1C109.006 21.1 94.4999 35.606 94.4999 53.5H90.8999Z" fill="#171717"/>
</svg>
